<svg id="kity_svg_6" xmlns="http://www.w3.org/2000/svg" xmlns:xlink="http://www.w3.org/1999/xlink" version="1.1" width="1958" height="265" style="background: rgb(251, 251, 251) none repeat scroll 0% 0%; visibility: visible;" viewBox="0 0 1958 265"><defs id="kity_defs_7"><linearGradient id="kity_linearGradient_17" x1="0" y1="0" x2="0" y2="1"><stop id="kity_stop_18" offset="0" stop-color="rgb(255, 255, 255)"></stop><stop id="kity_stop_19" offset="1" stop-color="rgb(204, 204, 204)"></stop></linearGradient><marker id="kity_marker_2" orient="auto" refX="6" refY="0" viewBox="-7 -7 14 14" markerWidth="7" markerHeight="7" markerUnits="userSpaceOnUse"><path id="kity_path_3" fill="rgb(115, 161, 191)" stroke="none" d="M6,0A6,6,0,1,1,-6,0A6,6,0,1,1,6,0"></path></marker></defs><g id="kity_g_8"><g id="minder1" text-rendering="optimize-speed"><g id="minder_connect_group1"><path id="kity_path_31" fill="none" stroke="rgb(115, 161, 191)" stroke-width="1" d="M1029.5,60.5v30h-867V110.5"></path><path id="kity_path_33" fill="none" stroke="rgb(115, 161, 191)" stroke-width="1" d="M162.5,136.5v20h-108V171.5"></path><path id="kity_path_35" fill="none" stroke="rgb(115, 161, 191)" stroke-width="1" d="M162.5,136.5v20h0V171.5"></path><path id="kity_path_37" fill="none" stroke="rgb(115, 161, 191)" stroke-width="1" d="M162.5,136.5v20h108V171.5"></path><path id="kity_path_39" fill="none" stroke="rgb(115, 161, 191)" stroke-width="1" d="M1029.5,60.5v30h-597V110.5"></path><path id="kity_path_41" fill="none" stroke="rgb(115, 161, 191)" stroke-width="1" d="M432.5,136.5v20h-54V171.5"></path><path id="kity_path_43" fill="none" stroke="rgb(115, 161, 191)" stroke-width="1" d="M432.5,136.5v20h54V171.5"></path><path id="kity_path_45" fill="none" stroke="rgb(115, 161, 191)" stroke-width="1" d="M1029.5,60.5v30h-321V110.5"></path><path id="kity_path_47" fill="none" stroke="rgb(115, 161, 191)" stroke-width="1" d="M708.5,136.5v20h-114V171.5"></path><path id="kity_path_49" fill="none" stroke="rgb(115, 161, 191)" stroke-width="1" d="M708.5,136.5v20h114V171.5"></path><path id="kity_path_51" fill="none" stroke="rgb(115, 161, 191)" stroke-width="1" d="M822.5,193.5v15h-120V223.5"></path><path id="kity_path_53" fill="none" stroke="rgb(115, 161, 191)" stroke-width="1" d="M822.5,193.5v15h-12V223.5"></path><path id="kity_path_55" fill="none" stroke="rgb(115, 161, 191)" stroke-width="1" d="M822.5,193.5v15h108V223.5"></path><path id="kity_path_57" fill="none" stroke="rgb(115, 161, 191)" stroke-width="1" d="M1029.5,60.5v30h183V110.5"></path><path id="kity_path_59" fill="none" stroke="rgb(115, 161, 191)" stroke-width="1" d="M1212.5,136.5v20h-162V171.5"></path><path id="kity_path_61" fill="none" stroke="rgb(115, 161, 191)" stroke-width="1" d="M1212.5,136.5v20h-54V171.5"></path><path id="kity_path_63" fill="none" stroke="rgb(115, 161, 191)" stroke-width="1" d="M1212.5,136.5v20h54V171.5"></path><path id="kity_path_65" fill="none" stroke="rgb(115, 161, 191)" stroke-width="1" d="M1212.5,136.5v20h162V171.5"></path><path id="kity_path_67" fill="none" stroke="rgb(115, 161, 191)" stroke-width="1" d="M1029.5,60.5v30h507V110.5"></path><path id="kity_path_69" fill="none" stroke="rgb(115, 161, 191)" stroke-width="1" d="M1536.5,136.5v20h-54V171.5"></path><path id="kity_path_71" fill="none" stroke="rgb(115, 161, 191)" stroke-width="1" d="M1536.5,136.5v20h54V171.5"></path><path id="kity_path_73" fill="none" stroke="rgb(115, 161, 191)" stroke-width="1" d="M1029.5,60.5v30h711V110.5"></path><path id="kity_path_75" fill="none" stroke="rgb(115, 161, 191)" stroke-width="1" d="M1740.5,136.5v20h0V171.5"></path><path id="kity_path_77" fill="none" stroke="rgb(115, 161, 191)" stroke-width="1" d="M1029.5,60.5v30h868V110.5"></path><path id="kity_path_79" fill="none" stroke="rgb(115, 161, 191)" stroke-width="1" d="M1897.5,136.5v20h0V171.5"></path></g><g id="minder_node1"><path id="node_outline1" fill="rgb(115, 161, 191)" stroke="rgb(57, 80, 96)" d="M971.5,20.5h116a5,5,0,0,1,5,5v30a5,5,0,0,1,-5,5h-116a5,5,0,0,1,-5,-5v-30a5,5,0,0,1,5,-5z" stroke-width="3"></path><g id="node_text1" fill="white"><text id="kity_text_22" text-rendering="inherit" font-size="16" dy=".8em" y="29.939998626708984" x="990.5">IF组织形式</text></g></g><g id="kity_g_12"><path id="kity_path_13" fill="none" stroke="none" d="M990.5,40.5h0v0h0z"></path></g><g id="kity_g_14"><path id="kity_path_15" fill="none" stroke="none" d="M990.5,40.5h0v0h0z"></path><path id="kity_path_16" fill="none" stroke="none"></path></g><g id="minder_node2"><g id="node_expander4" style="cursor: pointer;"><path id="kity_path_165" fill="white" stroke="gray" d="M168.5,103.5A6,6,0,1,1,156.5,103.5A6,6,0,1,1,168.5,103.5"></path><path id="kity_path_166" fill="none" stroke="gray" d="M158,103.5L167,103.5"></path></g><path id="node_outline5" fill="rgb(238, 243, 246)" stroke="rgb(115, 161, 191)" d="M124.5,110.5h76a3,3,0,0,1,3,3v20a3,3,0,0,1,-3,3h-76a3,3,0,0,1,-3,-3v-20a3,3,0,0,1,3,-3z" stroke-width="1"></path><g id="node_text5" fill="black"><text id="kity_text_87" text-rendering="inherit" font-size="14" dy=".8em" y="114.2599983215332" x="141.5">市场部</text></g></g><g id="minder_node3"><g id="node_expander1" style="cursor: pointer;" display="none"><path id="kity_path_156" fill="white" stroke="gray" d="M60.5,165.5A6,6,0,1,1,48.5,165.5A6,6,0,1,1,60.5,165.5"></path><path id="kity_path_157" fill="none" stroke="gray"></path></g><path id="node_outline2" fill="none" stroke="none" d="M25.5,171.5h58a5,5,0,0,1,5,5v12a5,5,0,0,1,-5,5h-58a5,5,0,0,1,-5,-5v-12a5,5,0,0,1,5,-5z"></path><g id="node_text2" fill="black"><text id="kity_text_81" text-rendering="inherit" font-size="12" dy=".8em" y="174.5800018310547" x="30.5">市场行情</text></g></g><g id="minder_node4"><g id="node_expander2" style="cursor: pointer;" display="none"><path id="kity_path_159" fill="white" stroke="gray" d="M168.5,165.5A6,6,0,1,1,156.5,165.5A6,6,0,1,1,168.5,165.5"></path><path id="kity_path_160" fill="none" stroke="gray"></path></g><path id="node_outline3" fill="none" stroke="none" d="M133.5,171.5h58a5,5,0,0,1,5,5v12a5,5,0,0,1,-5,5h-58a5,5,0,0,1,-5,-5v-12a5,5,0,0,1,5,-5z"></path><g id="node_text3" fill="black"><text id="kity_text_83" text-rendering="inherit" font-size="12" dy=".8em" y="174.5800018310547" x="138.5">发展趋势</text></g></g><g id="minder_node5"><g id="node_expander3" style="cursor: pointer;" display="none"><path id="kity_path_162" fill="white" stroke="gray" d="M276.5,165.5A6,6,0,1,1,264.5,165.5A6,6,0,1,1,276.5,165.5"></path><path id="kity_path_163" fill="none" stroke="gray"></path></g><path id="node_outline4" fill="none" stroke="none" d="M241.5,171.5h58a5,5,0,0,1,5,5v12a5,5,0,0,1,-5,5h-58a5,5,0,0,1,-5,-5v-12a5,5,0,0,1,5,-5z"></path><g id="node_text4" fill="black"><text id="kity_text_85" text-rendering="inherit" font-size="12" dy=".8em" y="174.5800018310547" x="246.5">市场定位</text></g></g><g id="minder_node6"><g id="node_expander7" style="cursor: pointer;"><path id="kity_path_174" fill="white" stroke="gray" d="M438.5,103.5A6,6,0,1,1,426.5,103.5A6,6,0,1,1,438.5,103.5"></path><path id="kity_path_175" fill="none" stroke="gray" d="M428,103.5L437,103.5"></path></g><path id="node_outline8" fill="rgb(238, 243, 246)" stroke="rgb(115, 161, 191)" d="M394.5,110.5h76a3,3,0,0,1,3,3v20a3,3,0,0,1,-3,3h-76a3,3,0,0,1,-3,-3v-20a3,3,0,0,1,3,-3z" stroke-width="1"></path><g id="node_text8" fill="black"><text id="kity_text_93" text-rendering="inherit" font-size="14" dy=".8em" y="114.2599983215332" x="411.5">宣传部</text></g></g><g id="minder_node7"><g id="node_expander5" style="cursor: pointer;" display="none"><path id="kity_path_168" fill="white" stroke="gray" d="M384.5,165.5A6,6,0,1,1,372.5,165.5A6,6,0,1,1,384.5,165.5"></path><path id="kity_path_169" fill="none" stroke="gray"></path></g><path id="node_outline6" fill="none" stroke="none" d="M349.5,171.5h58a5,5,0,0,1,5,5v12a5,5,0,0,1,-5,5h-58a5,5,0,0,1,-5,-5v-12a5,5,0,0,1,5,-5z"></path><g id="node_text6" fill="black"><text id="kity_text_89" text-rendering="inherit" font-size="12" dy=".8em" y="174.5800018310547" x="354.5">文化传播</text></g></g><g id="minder_node8"><g id="node_expander6" style="cursor: pointer;" display="none"><path id="kity_path_171" fill="white" stroke="gray" d="M492.5,165.5A6,6,0,1,1,480.5,165.5A6,6,0,1,1,492.5,165.5"></path><path id="kity_path_172" fill="none" stroke="gray"></path></g><path id="node_outline7" fill="none" stroke="none" d="M457.5,171.5h58a5,5,0,0,1,5,5v12a5,5,0,0,1,-5,5h-58a5,5,0,0,1,-5,-5v-12a5,5,0,0,1,5,-5z"></path><g id="node_text7" fill="black"><text id="kity_text_91" text-rendering="inherit" font-size="12" dy=".8em" y="174.5800018310547" x="462.5">宣传路线</text></g></g><g id="minder_node9"><g id="node_expander13" style="cursor: pointer;"><path id="kity_path_192" fill="white" stroke="gray" d="M714.5,103.5A6,6,0,1,1,702.5,103.5A6,6,0,1,1,714.5,103.5"></path><path id="kity_path_193" fill="none" stroke="gray" d="M704,103.5L713,103.5"></path></g><path id="node_outline14" fill="rgb(238, 243, 246)" stroke="rgb(115, 161, 191)" d="M670.5,110.5h76a3,3,0,0,1,3,3v20a3,3,0,0,1,-3,3h-76a3,3,0,0,1,-3,-3v-20a3,3,0,0,1,3,-3z" stroke-width="1"></path><g id="node_text14" fill="black"><text id="kity_text_105" text-rendering="inherit" font-size="14" dy=".8em" y="114.2599983215332" x="687.5">技术部</text></g></g><g id="minder_node10"><g id="node_expander8" style="cursor: pointer;" display="none"><path id="kity_path_177" fill="white" stroke="gray" d="M600.5,165.5A6,6,0,1,1,588.5,165.5A6,6,0,1,1,600.5,165.5"></path><path id="kity_path_178" fill="none" stroke="gray"></path></g><path id="node_outline9" fill="none" stroke="none" d="M565.5,171.5h58a5,5,0,0,1,5,5v12a5,5,0,0,1,-5,5h-58a5,5,0,0,1,-5,-5v-12a5,5,0,0,1,5,-5z"></path><g id="node_text9" fill="black"><text id="kity_text_95" text-rendering="inherit" font-size="12" dy=".8em" y="174.5800018310547" x="570.5">功能实现</text></g></g><g id="minder_node11"><g id="node_expander12" style="cursor: pointer;"><path id="kity_path_189" fill="white" stroke="gray" d="M828.5,165.5A6,6,0,1,1,816.5,165.5A6,6,0,1,1,828.5,165.5"></path><path id="kity_path_190" fill="none" stroke="gray" d="M818,165.5L827,165.5"></path></g><path id="node_outline13" fill="none" stroke="none" d="M793.5,171.5h58a5,5,0,0,1,5,5v12a5,5,0,0,1,-5,5h-58a5,5,0,0,1,-5,-5v-12a5,5,0,0,1,5,-5z"></path><g id="node_text13" fill="black"><text id="kity_text_103" text-rendering="inherit" font-size="12" dy=".8em" y="174.5800018310547" x="798.5">技术定位</text></g></g><g id="minder_node12"><g id="node_expander9" style="cursor: pointer;" display="none"><path id="kity_path_180" fill="white" stroke="gray" d="M708.5,217.5A6,6,0,1,1,696.5,217.5A6,6,0,1,1,708.5,217.5"></path><path id="kity_path_181" fill="none" stroke="gray"></path></g><path id="node_outline10" fill="none" stroke="none" d="M673.5,223.5h58a5,5,0,0,1,5,5v12a5,5,0,0,1,-5,5h-58a5,5,0,0,1,-5,-5v-12a5,5,0,0,1,5,-5z"></path><g id="node_text10" fill="black"><text id="kity_text_97" text-rendering="inherit" font-size="12" dy=".8em" y="226.5800018310547" x="678.5">创新技术</text></g></g><g id="minder_node13"><g id="node_expander10" style="cursor: pointer;" display="none"><path id="kity_path_183" fill="white" stroke="gray" d="M816.5,217.5A6,6,0,1,1,804.5,217.5A6,6,0,1,1,816.5,217.5"></path><path id="kity_path_184" fill="none" stroke="gray"></path></g><path id="node_outline11" fill="none" stroke="none" d="M781.5,223.5h58a5,5,0,0,1,5,5v12a5,5,0,0,1,-5,5h-58a5,5,0,0,1,-5,-5v-12a5,5,0,0,1,5,-5z"></path><g id="node_text11" fill="black"><text id="kity_text_99" text-rendering="inherit" font-size="12" dy=".8em" y="226.5800018310547" x="786.5">数据安全</text></g></g><g id="minder_node14"><g id="node_expander11" style="cursor: pointer;" display="none"><path id="kity_path_186" fill="white" stroke="gray" d="M936.5,217.5A6,6,0,1,1,924.5,217.5A6,6,0,1,1,936.5,217.5"></path><path id="kity_path_187" fill="none" stroke="gray"></path></g><path id="node_outline12" fill="none" stroke="none" d="M889.5,223.5h82a5,5,0,0,1,5,5v12a5,5,0,0,1,-5,5h-82a5,5,0,0,1,-5,-5v-12a5,5,0,0,1,5,-5z"></path><g id="node_text12" fill="black"><text id="kity_text_101" text-rendering="inherit" font-size="12" dy=".8em" y="226.5800018310547" x="894.5">行业解决方案</text></g></g><g id="minder_node15"><g id="node_expander18" style="cursor: pointer;"><path id="kity_path_207" fill="white" stroke="gray" d="M1218.5,103.5A6,6,0,1,1,1206.5,103.5A6,6,0,1,1,1218.5,103.5"></path><path id="kity_path_208" fill="none" stroke="gray" d="M1208,103.5L1217,103.5"></path></g><path id="node_outline19" fill="rgb(238, 243, 246)" stroke="rgb(115, 161, 191)" d="M1174.5,110.5h76a3,3,0,0,1,3,3v20a3,3,0,0,1,-3,3h-76a3,3,0,0,1,-3,-3v-20a3,3,0,0,1,3,-3z" stroke-width="1"></path><g id="node_text19" fill="black"><text id="kity_text_115" text-rendering="inherit" font-size="14" dy=".8em" y="114.2599983215332" x="1191.5">财务部</text></g></g><g id="minder_node16"><g id="node_expander14" style="cursor: pointer;" display="none"><path id="kity_path_195" fill="white" stroke="gray" d="M1056.5,165.5A6,6,0,1,1,1044.5,165.5A6,6,0,1,1,1056.5,165.5"></path><path id="kity_path_196" fill="none" stroke="gray"></path></g><path id="node_outline15" fill="none" stroke="none" d="M1021.5,171.5h58a5,5,0,0,1,5,5v12a5,5,0,0,1,-5,5h-58a5,5,0,0,1,-5,-5v-12a5,5,0,0,1,5,-5z"></path><g id="node_text15" fill="black"><text id="kity_text_107" text-rendering="inherit" font-size="12" dy=".8em" y="174.5800018310547" x="1026.5">公司账簿</text></g></g><g id="minder_node17"><g id="node_expander15" style="cursor: pointer;" display="none"><path id="kity_path_198" fill="white" stroke="gray" d="M1164.5,165.5A6,6,0,1,1,1152.5,165.5A6,6,0,1,1,1164.5,165.5"></path><path id="kity_path_199" fill="none" stroke="gray"></path></g><path id="node_outline16" fill="none" stroke="none" d="M1129.5,171.5h58a5,5,0,0,1,5,5v12a5,5,0,0,1,-5,5h-58a5,5,0,0,1,-5,-5v-12a5,5,0,0,1,5,-5z"></path><g id="node_text16" fill="black"><text id="kity_text_109" text-rendering="inherit" font-size="12" dy=".8em" y="174.5800018310547" x="1134.5">合理避税</text></g></g><g id="minder_node18"><g id="node_expander16" style="cursor: pointer;" display="none"><path id="kity_path_201" fill="white" stroke="gray" d="M1272.5,165.5A6,6,0,1,1,1260.5,165.5A6,6,0,1,1,1272.5,165.5"></path><path id="kity_path_202" fill="none" stroke="gray"></path></g><path id="node_outline17" fill="none" stroke="none" d="M1237.5,171.5h58a5,5,0,0,1,5,5v12a5,5,0,0,1,-5,5h-58a5,5,0,0,1,-5,-5v-12a5,5,0,0,1,5,-5z"></path><g id="node_text17" fill="black"><text id="kity_text_111" text-rendering="inherit" font-size="12" dy=".8em" y="174.5800018310547" x="1242.5">财务报销</text></g></g><g id="minder_node19"><g id="node_expander17" style="cursor: pointer;" display="none"><path id="kity_path_204" fill="white" stroke="gray" d="M1380.5,165.5A6,6,0,1,1,1368.5,165.5A6,6,0,1,1,1380.5,165.5"></path><path id="kity_path_205" fill="none" stroke="gray"></path></g><path id="node_outline18" fill="none" stroke="none" d="M1345.5,171.5h58a5,5,0,0,1,5,5v12a5,5,0,0,1,-5,5h-58a5,5,0,0,1,-5,-5v-12a5,5,0,0,1,5,-5z"></path><g id="node_text18" fill="black"><text id="kity_text_113" text-rendering="inherit" font-size="12" dy=".8em" y="174.5800018310547" x="1350.5">客户账簿</text></g></g><g id="minder_node20"><g id="node_expander21" style="cursor: pointer;"><path id="kity_path_216" fill="white" stroke="gray" d="M1542.5,103.5A6,6,0,1,1,1530.5,103.5A6,6,0,1,1,1542.5,103.5"></path><path id="kity_path_217" fill="none" stroke="gray" d="M1532,103.5L1541,103.5"></path></g><path id="node_outline22" fill="rgb(238, 243, 246)" stroke="rgb(115, 161, 191)" d="M1498.5,110.5h76a3,3,0,0,1,3,3v20a3,3,0,0,1,-3,3h-76a3,3,0,0,1,-3,-3v-20a3,3,0,0,1,3,-3z" stroke-width="1"></path><g id="node_text22" fill="black"><text id="kity_text_121" text-rendering="inherit" font-size="14" dy=".8em" y="114.2599983215332" x="1515.5">设计部</text></g></g><g id="minder_node21"><g id="node_expander19" style="cursor: pointer;" display="none"><path id="kity_path_210" fill="white" stroke="gray" d="M1488.5,165.5A6,6,0,1,1,1476.5,165.5A6,6,0,1,1,1488.5,165.5"></path><path id="kity_path_211" fill="none" stroke="gray"></path></g><path id="node_outline20" fill="none" stroke="none" d="M1453.5,171.5h58a5,5,0,0,1,5,5v12a5,5,0,0,1,-5,5h-58a5,5,0,0,1,-5,-5v-12a5,5,0,0,1,5,-5z"></path><g id="node_text20" fill="black"><text id="kity_text_117" text-rendering="inherit" font-size="12" dy=".8em" y="174.5800018310547" x="1458.5">产品设计</text></g></g><g id="minder_node22"><g id="node_expander20" style="cursor: pointer;" display="none"><path id="kity_path_213" fill="white" stroke="gray" d="M1596.5,165.5A6,6,0,1,1,1584.5,165.5A6,6,0,1,1,1596.5,165.5"></path><path id="kity_path_214" fill="none" stroke="gray"></path></g><path id="node_outline21" fill="none" stroke="none" d="M1561.5,171.5h58a5,5,0,0,1,5,5v12a5,5,0,0,1,-5,5h-58a5,5,0,0,1,-5,-5v-12a5,5,0,0,1,5,-5z"></path><g id="node_text21" fill="black"><text id="kity_text_119" text-rendering="inherit" font-size="12" dy=".8em" y="174.5800018310547" x="1566.5">家居设计</text></g></g><g id="minder_node23"><g id="node_expander23" style="cursor: pointer;"><path id="kity_path_222" fill="white" stroke="gray" d="M1746.5,103.5A6,6,0,1,1,1734.5,103.5A6,6,0,1,1,1746.5,103.5"></path><path id="kity_path_223" fill="none" stroke="gray" d="M1736,103.5L1745,103.5"></path></g><path id="node_outline24" fill="rgb(238, 243, 246)" stroke="rgb(115, 161, 191)" d="M1702.5,110.5h76a3,3,0,0,1,3,3v20a3,3,0,0,1,-3,3h-76a3,3,0,0,1,-3,-3v-20a3,3,0,0,1,3,-3z" stroke-width="1"></path><g id="node_text24" fill="black"><text id="kity_text_125" text-rendering="inherit" font-size="14" dy=".8em" y="114.2599983215332" x="1719.5">产品部</text></g></g><g id="minder_node24"><g id="node_expander22" style="cursor: pointer;" display="none"><path id="kity_path_219" fill="white" stroke="gray" d="M1746.5,165.5A6,6,0,1,1,1734.5,165.5A6,6,0,1,1,1746.5,165.5"></path><path id="kity_path_220" fill="none" stroke="gray"></path></g><path id="node_outline23" fill="none" stroke="none" d="M1669.5,171.5h142a5,5,0,0,1,5,5v12a5,5,0,0,1,-5,5h-142a5,5,0,0,1,-5,-5v-12a5,5,0,0,1,5,-5z"></path><g id="node_text23" fill="black"><text id="kity_text_123" text-rendering="inherit" font-size="12" dy=".8em" y="174.5800018310547" x="1674.5">设计理念转化为实际产品</text></g></g><g id="minder_node25"><g id="node_expander25" style="cursor: pointer;"><path id="kity_path_228" fill="white" stroke="gray" d="M1903.5,103.5A6,6,0,1,1,1891.5,103.5A6,6,0,1,1,1903.5,103.5"></path><path id="kity_path_229" fill="none" stroke="gray" d="M1893,103.5L1902,103.5"></path></g><path id="node_outline26" fill="rgb(238, 243, 246)" stroke="rgb(115, 161, 191)" d="M1859.5,110.5h76a3,3,0,0,1,3,3v20a3,3,0,0,1,-3,3h-76a3,3,0,0,1,-3,-3v-20a3,3,0,0,1,3,-3z" stroke-width="1"></path><g id="node_text26" fill="black"><text id="kity_text_129" text-rendering="inherit" font-size="14" dy=".8em" y="114.2599983215332" x="1876.5">施工部</text></g></g><g id="minder_node26"><g id="node_expander24" style="cursor: pointer;" display="none"><path id="kity_path_225" fill="white" stroke="gray" d="M1903.5,165.5A6,6,0,1,1,1891.5,165.5A6,6,0,1,1,1903.5,165.5"></path><path id="kity_path_226" fill="none" stroke="gray"></path></g><path id="node_outline25" fill="none" stroke="none" d="M1868.5,171.5h58a5,5,0,0,1,5,5v12a5,5,0,0,1,-5,5h-58a5,5,0,0,1,-5,-5v-12a5,5,0,0,1,5,-5z"></path><g id="node_text25" fill="black"><text id="kity_text_127" text-rendering="inherit" font-size="12" dy=".8em" y="174.5800018310547" x="1873.5">装修施工</text></g></g></g></g></svg>